<mxfile host="app.diagrams.net" modified="2024-05-04T05:40:20.539Z" agent="Mozilla/5.0 (Windows NT 10.0; Win64; x64) AppleWebKit/537.36 (KHTML, like Gecko) Chrome/124.0.0.0 Safari/537.36" etag="M9rSHpmZSFxyitTPp35q" version="24.2.3" type="github">
  <diagram name="Page-1" id="s7VlATsCcJNsYEmK_NUN">
    <mxGraphModel dx="1517" dy="765" grid="1" gridSize="10" guides="1" tooltips="1" connect="1" arrows="1" fold="1" page="1" pageScale="1" pageWidth="850" pageHeight="1100" math="0" shadow="0">
      <root>
        <mxCell id="0" />
        <mxCell id="1" parent="0" />
        <mxCell id="S5V9LqTWXxHcB_FXXK1A-1" value="A&amp;amp;A" style="rounded=0;whiteSpace=wrap;html=1;" vertex="1" parent="1">
          <mxGeometry x="320" y="170" width="120" height="60" as="geometry" />
        </mxCell>
        <mxCell id="S5V9LqTWXxHcB_FXXK1A-2" value="USER MANAGEMENT" style="rounded=1;whiteSpace=wrap;html=1;" vertex="1" parent="1">
          <mxGeometry x="640" y="120" width="120" height="60" as="geometry" />
        </mxCell>
        <mxCell id="S5V9LqTWXxHcB_FXXK1A-4" value="PRODUCT MANAGEMENT" style="rounded=1;whiteSpace=wrap;html=1;" vertex="1" parent="1">
          <mxGeometry x="640" y="320" width="120" height="60" as="geometry" />
        </mxCell>
        <mxCell id="S5V9LqTWXxHcB_FXXK1A-32" style="edgeStyle=none;rounded=0;orthogonalLoop=1;jettySize=auto;html=1;exitX=1;exitY=0;exitDx=0;exitDy=0;entryX=0;entryY=1;entryDx=0;entryDy=0;" edge="1" parent="1" source="S5V9LqTWXxHcB_FXXK1A-5" target="S5V9LqTWXxHcB_FXXK1A-29">
          <mxGeometry relative="1" as="geometry" />
        </mxCell>
        <mxCell id="S5V9LqTWXxHcB_FXXK1A-5" value="ORDER ALLOCATION" style="rounded=1;whiteSpace=wrap;html=1;" vertex="1" parent="1">
          <mxGeometry x="640" y="420" width="120" height="60" as="geometry" />
        </mxCell>
        <mxCell id="S5V9LqTWXxHcB_FXXK1A-6" value="" style="rounded=0;whiteSpace=wrap;html=1;" vertex="1" parent="1">
          <mxGeometry x="840" y="120" width="440" height="360" as="geometry" />
        </mxCell>
        <mxCell id="S5V9LqTWXxHcB_FXXK1A-12" value="" style="endArrow=none;html=1;rounded=0;" edge="1" parent="1">
          <mxGeometry width="50" height="50" relative="1" as="geometry">
            <mxPoint x="1170" y="480" as="sourcePoint" />
            <mxPoint x="1170" y="120" as="targetPoint" />
          </mxGeometry>
        </mxCell>
        <mxCell id="S5V9LqTWXxHcB_FXXK1A-16" value="" style="endArrow=none;html=1;rounded=0;exitX=0.25;exitY=1;exitDx=0;exitDy=0;" edge="1" parent="1" source="S5V9LqTWXxHcB_FXXK1A-6">
          <mxGeometry width="50" height="50" relative="1" as="geometry">
            <mxPoint x="900" y="170" as="sourcePoint" />
            <mxPoint x="950" y="120" as="targetPoint" />
          </mxGeometry>
        </mxCell>
        <mxCell id="S5V9LqTWXxHcB_FXXK1A-17" style="rounded=0;orthogonalLoop=1;jettySize=auto;html=1;exitX=0.25;exitY=0;exitDx=0;exitDy=0;entryX=0.25;entryY=1;entryDx=0;entryDy=0;" edge="1" parent="1" source="S5V9LqTWXxHcB_FXXK1A-6" target="S5V9LqTWXxHcB_FXXK1A-6">
          <mxGeometry relative="1" as="geometry" />
        </mxCell>
        <mxCell id="S5V9LqTWXxHcB_FXXK1A-26" style="rounded=0;orthogonalLoop=1;jettySize=auto;html=1;exitX=1;exitY=0.25;exitDx=0;exitDy=0;entryX=0.131;entryY=1.126;entryDx=0;entryDy=0;entryPerimeter=0;" edge="1" parent="1" source="S5V9LqTWXxHcB_FXXK1A-18" target="S5V9LqTWXxHcB_FXXK1A-3">
          <mxGeometry relative="1" as="geometry">
            <mxPoint x="580" y="330" as="targetPoint" />
          </mxGeometry>
        </mxCell>
        <mxCell id="S5V9LqTWXxHcB_FXXK1A-28" style="edgeStyle=none;rounded=0;orthogonalLoop=1;jettySize=auto;html=1;exitX=0.75;exitY=1;exitDx=0;exitDy=0;entryX=0;entryY=0;entryDx=0;entryDy=0;" edge="1" parent="1" source="S5V9LqTWXxHcB_FXXK1A-18" target="S5V9LqTWXxHcB_FXXK1A-24">
          <mxGeometry relative="1" as="geometry" />
        </mxCell>
        <mxCell id="S5V9LqTWXxHcB_FXXK1A-18" value="" style="rounded=1;whiteSpace=wrap;html=1;arcSize=27;" vertex="1" parent="1">
          <mxGeometry x="320" y="320" width="120" height="60" as="geometry" />
        </mxCell>
        <mxCell id="S5V9LqTWXxHcB_FXXK1A-19" value="Actor" style="shape=umlActor;verticalLabelPosition=bottom;verticalAlign=top;html=1;outlineConnect=0;" vertex="1" parent="1">
          <mxGeometry x="210" y="320" width="30" height="60" as="geometry" />
        </mxCell>
        <mxCell id="S5V9LqTWXxHcB_FXXK1A-20" value="" style="endArrow=classic;html=1;rounded=0;entryX=0;entryY=0.5;entryDx=0;entryDy=0;" edge="1" parent="1" source="S5V9LqTWXxHcB_FXXK1A-19" target="S5V9LqTWXxHcB_FXXK1A-18">
          <mxGeometry width="50" height="50" relative="1" as="geometry">
            <mxPoint x="630" y="330" as="sourcePoint" />
            <mxPoint x="680" y="280" as="targetPoint" />
          </mxGeometry>
        </mxCell>
        <mxCell id="S5V9LqTWXxHcB_FXXK1A-22" value="" style="endArrow=classic;html=1;rounded=0;exitX=0.989;exitY=0.145;exitDx=0;exitDy=0;exitPerimeter=0;" edge="1" parent="1" source="S5V9LqTWXxHcB_FXXK1A-18" target="S5V9LqTWXxHcB_FXXK1A-3">
          <mxGeometry width="50" height="50" relative="1" as="geometry">
            <mxPoint x="439" y="329" as="sourcePoint" />
            <mxPoint x="680" y="280" as="targetPoint" />
          </mxGeometry>
        </mxCell>
        <mxCell id="S5V9LqTWXxHcB_FXXK1A-31" style="edgeStyle=none;rounded=0;orthogonalLoop=1;jettySize=auto;html=1;exitX=1;exitY=0.75;exitDx=0;exitDy=0;entryX=0;entryY=0.5;entryDx=0;entryDy=0;" edge="1" parent="1" source="S5V9LqTWXxHcB_FXXK1A-3" target="S5V9LqTWXxHcB_FXXK1A-29">
          <mxGeometry relative="1" as="geometry" />
        </mxCell>
        <mxCell id="S5V9LqTWXxHcB_FXXK1A-3" value="ORDER CREATION" style="rounded=1;whiteSpace=wrap;html=1;" vertex="1" parent="1">
          <mxGeometry x="640" y="210" width="120" height="60" as="geometry" />
        </mxCell>
        <mxCell id="S5V9LqTWXxHcB_FXXK1A-27" style="rounded=0;orthogonalLoop=1;jettySize=auto;html=1;exitX=0;exitY=0;exitDx=0;exitDy=0;entryX=1;entryY=1;entryDx=0;entryDy=0;" edge="1" parent="1" source="S5V9LqTWXxHcB_FXXK1A-23" target="S5V9LqTWXxHcB_FXXK1A-18">
          <mxGeometry relative="1" as="geometry" />
        </mxCell>
        <mxCell id="S5V9LqTWXxHcB_FXXK1A-23" value="Notification" style="rounded=1;whiteSpace=wrap;html=1;" vertex="1" parent="1">
          <mxGeometry x="640" y="500" width="120" height="60" as="geometry" />
        </mxCell>
        <mxCell id="S5V9LqTWXxHcB_FXXK1A-24" value="Payment" style="rounded=1;whiteSpace=wrap;html=1;" vertex="1" parent="1">
          <mxGeometry x="640" y="590" width="120" height="60" as="geometry" />
        </mxCell>
        <mxCell id="S5V9LqTWXxHcB_FXXK1A-29" value="Order creation Acceptance&lt;div&gt;&lt;br&gt;&lt;/div&gt;" style="rounded=1;whiteSpace=wrap;html=1;" vertex="1" parent="1">
          <mxGeometry x="840" y="270" width="120" height="60" as="geometry" />
        </mxCell>
      </root>
    </mxGraphModel>
  </diagram>
</mxfile>
